<?xml version="1.0" encoding="utf-8" ?><svg xmlns="http://www.w3.org/2000/svg" xmlns:xlink="http://www.w3.org/1999/xlink" width="1536" height="768" viewBox="0 0 1536 768"><path fill="#1C1917" d="M0 0L1536 0L1536 768L0 768L0 0Z"/><path fill="#1C1917" d="M378.084 326.204C412.508 326.863 437.707 322.566 449.95 286.51C461.757 323.437 488.991 326.322 522.859 325.707C522.808 375.11 522.15 412.644 484.347 451.538C477.492 458.591 458.868 473.359 449.754 476.205C436.646 469.339 424.656 460.524 414.193 450.061C377.467 413.078 377.943 373.861 378.084 326.204Z"/><path fill="#FFFBEB" d="M378.084 326.204C412.508 326.863 437.707 322.566 449.95 286.51C461.757 323.437 488.991 326.322 522.859 325.707C518.114 330.355 513.45 335.085 508.871 339.896C485.319 339.789 467.298 334.398 450.394 317.217C450.206 317.026 450.02 316.833 449.837 316.639C431.827 334.131 416.379 339.142 391.527 340.348C391.37 379.829 396.012 411.802 425.182 441.607C431.812 448.382 441.095 455.701 449.76 459.676C449.844 465.107 450.03 470.806 449.754 476.205C436.646 469.339 424.656 460.524 414.193 450.061C377.467 413.078 377.943 373.861 378.084 326.204Z"/><path fill="#F59E0B" d="M522.859 325.707C522.808 375.11 522.15 412.644 484.347 451.538C477.492 458.591 458.868 473.359 449.754 476.205C450.03 470.806 449.844 465.107 449.76 459.676C480.486 444.37 500.476 413.793 506.594 380.568C509.194 366.445 508.986 354.137 508.871 339.896C513.45 335.085 518.114 330.355 522.859 325.707Z"/><path fill="#302921" d="M433.395 427.402L435.803 427.616C435.606 432.016 435.8 436.679 436.094 441.077C445.467 441.119 454.841 441.074 464.213 440.941C464.298 437.34 464.346 433.737 464.356 430.135C465.002 430.28 465.671 430.288 466.32 430.158C465.652 433.698 465.832 438.779 465.768 442.537C455.034 442.471 444.553 442.715 433.852 442.76C433.446 437.471 433.583 432.64 433.395 427.402Z"/><path fill="#544739" d="M444.671 386.914C453.51 386.835 453.975 391.636 447.668 396.81C444.388 396.576 440.959 391.456 441.618 388.711C443.022 388.135 443.451 387.79 444.671 386.914Z"/><path fill="#544739" d="M494.289 379.416C506.473 378.896 505.108 387.77 495.395 388.608L493.909 387.822C493.145 384.723 493.388 384.15 493.726 381.024C494.195 380.254 494.185 380.318 494.289 379.416Z"/><path fill="#544739" d="M464.356 430.135C462.001 429.605 460.426 427.383 460.706 424.985C460.987 422.587 463.032 420.788 465.446 420.816C467.86 420.844 469.863 422.69 470.088 425.093C470.313 427.497 468.687 429.682 466.32 430.158C465.671 430.288 465.002 430.28 464.356 430.135Z"/><path fill="#544739" d="M433.395 427.402C429.913 424.668 427.65 420.23 433.87 418.005C434.271 417.861 439.502 418.86 439.63 418.944C437.633 424.031 440.942 423.107 435.803 427.616L433.395 427.402Z"/><path fill="#544739" d="M421.037 372.456C421.216 372.902 422.407 375.204 422.366 375.475C423.326 374.962 419.085 375.736 417.528 376.165C409.143 378.477 411.314 361.106 420.443 368.98C420.66 370.135 420.858 371.294 421.037 372.456Z"/><path fill="#544739" d="M444.354 346.277C444.795 344.453 444.483 340.398 445.569 339.759C453.699 334.977 453.713 341.59 453.868 345.627C452.968 345.832 453.037 345.802 452.327 346.375C448.46 347.344 449.315 346.844 445.51 346.885L444.354 346.277Z"/><path fill="#544739" d="M474.477 363.241C475.996 361.551 478.524 361.23 480.417 362.485C482.311 363.741 482.998 366.195 482.033 368.251C481.823 368.7 481.541 369.111 481.199 369.469C479.772 370.965 477.52 371.319 475.702 370.335C473.884 369.35 472.95 367.27 473.423 365.257C473.599 364.507 473.962 363.813 474.477 363.241Z"/><path fill="#302921" d="M444.354 346.277L445.51 346.885C440.166 353.802 422.545 366.284 421.037 372.456C420.858 371.294 420.66 370.135 420.443 368.98C422.113 366.435 440.844 349.313 444.354 346.277Z"/><path fill="#302921" d="M452.327 346.375C453.037 345.802 452.968 345.832 453.868 345.627C460.673 351.517 468.317 357.038 474.477 363.241C473.962 363.813 473.599 364.507 473.423 365.257C468.372 358.522 457.728 352.999 452.327 346.375Z"/><path fill="#544739" d="M485.608 396.353L486.386 397.518L486.374 398.016C486.301 402.227 487.408 400.025 486.06 405.562C485.053 405.804 484.048 406.053 483.044 406.31C477.149 401.071 480.36 399.872 485.608 396.353Z"/><path fill="#302921" d="M482.033 368.251C486.219 372.268 489.981 375.636 494.289 379.416C494.185 380.318 494.195 380.254 493.726 381.024C491.507 379.741 483.584 371.692 481.199 369.469C481.541 369.111 481.823 368.7 482.033 368.251Z"/><path fill="#302921" d="M486.06 405.562C488.021 406.986 494.056 411.815 494.375 413.967C491.456 415.584 489.019 407.297 483.044 406.31C484.048 406.053 485.053 405.804 486.06 405.562Z"/><path fill="#302921" d="M493.909 387.822L495.395 388.608C493.281 391.128 488.946 395.529 486.386 397.518L485.608 396.353C488.117 393.566 491.464 390.489 493.909 387.822Z"/><path fill="#F59E0B" d="M1102.82 334.677C1147.49 331.236 1165.55 367.028 1153.68 407.126C1151.77 413.589 1147.24 419.194 1142.99 424.351C1147.68 428.412 1151.84 432.378 1156.32 436.682L1140.63 436.673C1139.1 435.023 1137.8 433.657 1136.16 432.098C1133.53 431.709 1133.88 432.152 1131 433.772C1103.49 446.806 1068.22 431.625 1063.4 400.042C1058.48 367.907 1068 341.119 1102.82 334.677Z"/><path fill="#1C1917" d="M1108.33 344.545C1114.44 344.049 1124.33 346.382 1129.16 350.016C1150.36 365.973 1148.96 396.355 1136.04 416.139L1127.63 406.192C1123.04 405.809 1116.68 405.884 1111.94 405.815C1116.55 410.874 1121.23 415.864 1125.99 420.782L1126.99 422.284L1126.47 423.461C1122.85 426.037 1119.06 426.969 1114.75 427.526C1092.21 430.392 1075.77 413.924 1074.04 392.152C1072.06 367.116 1080.63 347.085 1108.33 344.545Z"/><path fill="#FFFBEB" d="M696.954 363.112C734.092 359.979 750.638 391.75 734.444 423.127C730.31 431.136 720.346 435.951 711.646 437.854C702.193 438.567 691.037 438.443 683.359 432.619C657.867 413.281 664.171 370.012 696.954 363.112Z"/><path fill="#1C1917" d="M699.677 373.669C735.793 371.524 738.83 420.018 708.583 427.465C702.997 427.707 696.122 427.935 691.526 424.61C672.147 410.591 674.86 379.441 699.677 373.669Z"/><path fill="#FFFBEB" d="M842.418 363.129C872.922 360.91 883.063 374.667 883.047 403.506L825.985 403.232C828.683 418.676 836.906 430.143 854.816 427.948C860.262 427.28 864.536 424.319 868.478 420.626C869.408 419.48 871.331 416.223 872.212 414.805L882.354 414.849C873.626 448.544 821.763 445.841 815.974 412.353C812.056 389.689 816.578 368.251 842.418 363.129Z"/><path fill="#1C1917" d="M843.283 373.608C861.415 371.686 867.906 377.456 872.187 394.203C867.77 394.492 861.259 394.322 856.687 394.343L825.82 394.236C828.798 382.301 831.664 377.849 843.283 373.608Z"/><path fill="#FFFBEB" d="M603.498 334.699C628.348 332.381 644.164 339.283 653.291 363.806L641.934 363.866C637.664 354.093 631.421 348.365 620.776 345.966C567.115 333.872 553.693 414.586 602.635 427.2C620.89 431.905 649.574 418.607 643.743 397.023C643.396 395.737 640.279 395.956 639.188 395.895L612.567 395.81L612.576 385.281L656.259 385.42C656.308 398.905 657.365 409.493 649.03 421.436C634.453 442.322 601.169 443.275 581.54 429.537C558.473 413.391 555.67 375.215 571.574 353.186C579.539 342.153 590.261 336.83 603.498 334.699Z"/><path fill="#FFFBEB" d="M976.983 363.206C979.274 362.948 981.578 362.817 983.884 362.812C991.566 362.747 998.514 364.362 1004.12 369.969C1013.4 379.251 1012.09 392.573 1012.02 404.579C1011.95 415.242 1011.93 425.948 1011.9 436.632L1000.76 436.859C1000.67 421.089 1001.62 404.482 1000.39 388.848C999.301 375.009 985.815 372.216 974.53 374.24C954.17 380.453 960.07 418.952 959.771 436.675L948.743 436.649L948.538 363.692L959.848 363.773L960.026 374.86C966.12 367.106 967.135 365.842 976.983 363.206Z"/><path fill="#FFFBEB" d="M742.371 363.759L755.074 363.725C760.278 378.978 770.439 410.214 776.829 423.644C784.57 403.738 792.133 383.763 799.52 363.722L811.554 363.756L807.681 374.048C800.426 394.859 791.871 416.066 783.828 436.661L769.95 436.724C760.564 412.475 751.371 388.153 742.371 363.759Z"/><path fill="#F59E0B" d="M1033.59 335.382L1045.46 335.376L1045.41 436.595L1033.48 436.631L1033.59 335.382Z"/><path fill="#FFFBEB" d="M909.842 376.045C917.377 365.209 923.565 363.541 936.112 363.337L936.16 375.156C917.526 375.525 911.614 380.561 910.046 399.804C909.651 411.544 909.915 424.777 909.883 436.633L898.642 436.658L898.652 363.9L909.737 363.927C909.711 367.911 909.802 372.05 909.842 376.045Z"/></svg>