<?xml version="1.0" encoding="utf-8" ?><svg xmlns="http://www.w3.org/2000/svg" xmlns:xlink="http://www.w3.org/1999/xlink" width="1536" height="768" viewBox="0 0 1536 768"><path fill="#F59E0B" d="M1234.42 312.246C1291.71 305.783 1316.9 360.456 1301.4 409.779C1298.89 417.776 1294.64 424.233 1290.04 431.193C1297.74 440.124 1305.44 447.693 1314.03 455.686C1304.51 456.152 1292.21 455.877 1282.52 455.944L1275.98 448.996C1274.84 447.669 1274.33 447.231 1272.98 446.124C1270.88 445.675 1258.96 450.236 1254.88 450.905C1189.81 461.572 1159.94 385.593 1192.22 336.812C1202.32 321.549 1216.86 315.228 1234.42 312.246ZM1257.51 426.967C1254.18 423.249 1250.74 419.63 1247.2 416.115C1244.08 413.085 1238.83 408.251 1236.29 405.038L1262.96 405.393L1273.64 415.07C1290.52 385.521 1282.56 330.416 1239.12 333.957C1229.08 335.385 1219.58 338.995 1213.57 347.713C1190.82 380.775 1208.34 441.722 1257.51 426.967Z"/><path fill="#1C1917" d="M682.873 345.983C685.401 345.57 687.979 345.562 690.586 345.59C743.783 346.159 757.158 418.998 715.143 445.167C709.323 448.792 703.87 449.956 697.172 451.28C683.72 452.307 672.74 451.135 661.627 443.027C650.572 434.908 643.195 422.729 641.123 409.17C636.658 379.143 651.007 350.491 682.873 345.983ZM696.466 431.79C729.44 421.006 726.518 361.308 683.4 365.436C679.912 366.691 677.218 367.681 674.132 369.881C655.69 383.023 657.485 420.373 678.898 429.808C684.936 432.468 689.898 432.462 696.466 431.79Z"/><path fill="#1C1917" d="M564.379 312.289C575.781 311.081 593.262 315.865 602.529 322.975C616.177 333.447 620.428 342.792 623.084 359.161L602.414 359.081C595.989 342.113 588.441 333.284 569.004 332.752C540.065 331.959 523.984 355.142 524.307 381.848C524.481 396.197 526.693 408.045 537.275 418.981C551.626 433.814 580.084 434.998 594.832 420.129C602.242 412.578 603.741 404.604 603.609 394.535C591.3 394.18 577.839 394.442 565.444 394.437L564.429 394.125C563.687 391.054 563.979 379.147 563.993 375.313C574.911 374.5 613.131 374.827 624.243 375.396C623.864 395.49 627.047 413.847 613.499 430.652C592.437 456.96 551.574 458.334 526.27 438.045C489.132 408.269 496.513 333.818 542.725 316.78C550.519 313.907 556.181 313.068 564.379 312.289Z"/><path fill="#1C1917" d="M886.879 345.987C900.937 344.081 915.338 347.691 925.418 358.124C938.486 371.65 939.596 386.382 939.42 404.24C915.16 405.215 889.57 403.734 865.358 404.622C867.012 412.427 869.02 418.21 874.904 424.014C880.432 429.508 887.954 432.523 895.746 432.37C901.781 432.301 909.055 430.061 913.882 426.278C917.612 423.354 919.974 417.782 923.123 414.784C928.978 417.216 933.3 419.419 938.928 422.379C931.153 438.487 922.977 447.569 904.104 451.081C834.065 464.115 822.008 354.767 886.879 345.987ZM865.862 388.213C876.416 388.671 887.319 388.462 897.915 388.395C904.756 388.38 912.412 388.528 919.174 388.087C916.37 371.08 904.627 362.874 887.648 364.687C874.115 368.662 869.6 374.771 865.862 388.213Z"/><path fill="#1C1917" d="M1074.48 345.227C1075.34 345.191 1076.2 345.175 1077.07 345.178C1087.52 345.234 1098.23 348.653 1105.64 356.235C1117.53 368.411 1117.62 386.241 1117.56 402.144C1117.5 418.492 1117.47 434.866 1117.39 451.227L1096.58 451.319C1096.5 437.285 1096.5 423.25 1096.59 409.215C1096.63 386.82 1098.81 360.265 1066.66 366.408C1047.37 374.449 1050.59 395.701 1050.64 412.89L1050.69 451.267L1029.89 451.077L1029.92 347.291C1036.32 347.036 1043.38 347.165 1049.83 347.151L1050.09 357.405C1059.14 349.108 1062.32 347.022 1074.48 345.227Z"/><path fill="#F59E0B" d="M340.914 250.204C368.811 277.639 397.152 286.205 435.813 286.173C436.439 307.385 435.686 330.852 436.1 351.263C437.3 410.445 431.252 446.239 379.226 480.941C359.287 494.241 350.019 495.92 338.572 518.104C329.915 498.804 316.735 491.725 299.35 481.024C275.09 466.092 259.767 451.036 247.875 425.003C250.362 423.925 252.936 422.668 255.402 421.513C265.103 440.312 271.607 451.263 289.005 464.343C306.213 477.9 325.961 483.865 338.276 501.469C355.919 481.697 377.996 476.258 398.377 455.158C429.062 423.39 427.86 392.055 427.708 351.012L427.567 294.449C387.853 292.291 371.75 285.905 340.939 262.387C315.86 284.719 302.545 290.025 269.073 296.72L265.921 287.216C266.984 287.112 268.046 287.002 269.108 286.884C296.527 283.848 323.402 272.025 340.914 250.204Z"/><path fill="#F59E0B" d="M245.551 321.953C244.98 312.522 248.023 308.242 239.889 304.462C237.67 303.43 238.455 296.825 240.113 295.218C248.603 286.99 263.434 296.73 249.087 307.914L248.809 319.456C252.209 324.015 255.873 327.443 260.228 331.034C262.339 328.968 269.743 322.283 269.998 319.166C270.15 317.313 268.05 314.707 268.864 311.412C270.84 308.172 274.576 306.966 278.093 308.168C282.485 312.727 279.436 320.52 285.656 323.909C290.409 324.766 297.893 321.135 298.175 316.74C298.771 307.454 309.474 307.208 310.833 314.8C311.108 316.273 310.713 317.792 309.757 318.945C307.092 322.117 302.674 321.847 298.838 321.94L291.337 329.317C297.205 335.934 303.201 342.436 309.322 348.819C313.882 349.23 318.319 349.719 320.161 354.667C320.044 358.258 316.18 362.056 312.657 362.234C310.151 361.576 308.949 359.157 307.391 356.934C303.39 356.203 297.383 356.78 293.17 357.007L288.776 361.036L298.062 370.858C310.639 370.168 310.829 381.857 301.055 383.446C295.566 384.339 295.372 373.791 293.112 370.501C291.428 368.049 288.962 365.654 286.599 363.285C283.532 366.035 277.589 371.824 275.347 375.027C276.604 378.974 275.794 392.826 275.611 397.632C278.056 399.301 279.779 401.316 280.363 404.227C279.833 408.404 277.046 411.615 272.777 411.891C267.842 408.919 269.387 403.841 267.26 400.245C265.926 397.99 260.594 392.812 258.558 390.779C242.876 403.384 256.81 406.898 243.055 412.691C240.196 413.896 232.965 407.738 233.818 405.22C237.191 395.262 247.347 396.832 256.104 388.625C252.878 385.37 234.307 365.684 231.725 365.139C230.882 365.375 229.978 365.463 229.479 366.013C222.518 373.68 231.567 376.185 231.413 381.724C229.347 388.484 215.064 389.688 217.734 378.704C218.491 375.592 220.823 374.447 223.295 372.947L223.466 360.504C215.236 353.434 221.393 345.223 229.038 349.794C231.349 351.176 231.274 355.619 231.397 358.344C235.307 362.51 239.496 366.619 243.539 370.674C247.896 367.657 252.109 363.188 255.907 359.398C252.763 355.968 247.225 348.99 243.777 346.867C241.386 346.877 240.905 346.891 238.517 346.233C234.678 342.938 234.464 340.46 233.537 335.629C227.614 329.634 220.865 337.296 216.463 330.041C215.991 325.68 217.91 322.347 222.122 320.87C227.694 321.37 228.357 324.587 229.194 329.421L237.795 333.729C248.445 330.37 250.627 335.989 247.122 345.193C257.697 357.93 258.757 358.113 269.584 345.486C263.266 337.961 252.839 328.7 245.551 321.953ZM274.214 345.834C278.723 350.811 281.12 353.508 286.049 358.208C288.445 356.783 289.93 355.672 292.168 354.078C294.48 353.513 312.2 354.316 306.977 350.253C300.374 345.116 295.098 336.803 289.003 331.66C284.201 336.449 279.095 341.007 274.214 345.834ZM246.081 373.689C250.394 378.479 253.557 381.602 258.501 385.614C263.086 382.302 267.219 378.831 270.306 373.978C266.72 370.856 262.767 364.737 258.288 362.379C255.776 365.212 249.412 370.281 246.081 373.689ZM260.812 388.46C262.873 390.762 265.889 395.289 268.463 395.891C273.467 388.869 274.077 388.04 268.407 381.925C266.489 382.295 262.543 386.761 260.812 388.46ZM272.254 348.365C268.672 351.717 263.918 355.905 260.748 359.437C264.438 363.677 268.657 368.73 273.539 371.463C277.716 367.684 280.172 365.24 283.934 360.948C280.096 356.703 276.202 352.508 272.254 348.365ZM276.314 319.963C271.29 324.007 266.639 328.492 262.416 333.366C264.406 335.557 269.639 341.781 272.185 342.301C276.683 338.658 282.174 333.62 286.328 329.554C283.545 326.7 279.557 321.904 276.314 319.963Z"/><path fill="#1C1917" d="M744.278 346.827C750.681 346.586 757.256 346.686 763.677 346.708C767.617 359.51 773.804 374.456 778.494 387.216C782.648 398.517 787.234 412.562 791.927 423.36C796.362 414.311 800.461 402.205 803.956 392.559L820.431 346.96C827.516 346.462 835.248 346.697 842.397 346.767C840.279 353.16 836.839 361.273 834.341 367.684C823.378 395.442 812.624 423.282 802.08 451.201L782.234 450.951C773.599 423.896 759.041 394.17 749.811 366.921C748.269 362.37 743.776 351.581 743.261 347.664L744.278 346.827Z"/><path fill="#F59E0B" d="M1137.03 312.801L1162.43 312.795C1161.71 358.576 1162.53 405.435 1162.17 451.472L1136.87 451.495L1137.03 312.801Z"/><path fill="#1C1917" d="M1010.08 346.063L1011.84 346.607C1012.69 348.9 1012.12 363.615 1012.11 367.166C977.047 366.969 979.425 384.205 979.208 412.373L978.877 450.822C972.316 451.108 964.965 451.021 958.339 451.087L958.275 442.125L958.234 346.805C964.229 346.471 971.823 346.632 977.939 346.589L977.956 359.579C989.088 348.148 994.822 347.271 1010.08 346.063Z"/></svg>