<?xml version="1.0" encoding="utf-8" ?><svg xmlns="http://www.w3.org/2000/svg" xmlns:xlink="http://www.w3.org/1999/xlink" width="1024" height="1024" viewBox="0 0 1024 1024"><path fill="#1C1917" d="M610.189 511.757C608.36 516.881 606.594 522.098 604.786 527.183C590.93 566.166 566.156 598.8 532.342 622.658C526.867 626.522 520.467 631.551 514.563 634.72C512.884 635.621 510.811 635.398 509.135 634.506C503.155 631.32 497.096 626.242 491.543 622.274C458.188 598.444 435.492 569.415 420.895 531C410.753 504.308 405.769 478.625 405.061 450.029C404.948 445.465 404.498 437.577 406.127 433.313C406.617 432.03 408.661 430.993 409.94 430.713C415.194 429.563 420.904 428.779 426.244 427.823C435.054 426.277 443.74 424.091 452.232 421.281C467.593 416.216 483.488 408.317 496.753 399.084C501.477 395.796 507.302 389.67 512.733 388.149C517.937 390.727 524.711 397.212 529.875 400.857C542.905 410.055 560.837 418.599 576.278 422.927C583.978 425.067 591.786 426.797 599.669 428.109C604.015 428.872 617.797 429.514 618.355 434.387C621.129 458.59 617.347 488.658 610.189 511.757ZM511.641 627.07C518.535 623.756 528.126 616.928 534.263 612.232C565.623 588.235 586.102 558.073 599.132 521.009C600.628 516.706 601.956 512.346 603.114 507.94C610.066 481.753 611.456 464.662 611.248 437.607C585.534 436.206 553.699 424.849 531.6 411.689C524.99 407.752 518.001 401.376 511.324 398.104C479.854 421.874 451.434 431.893 412.714 437.71C410.034 488.434 428.27 548.293 462.499 586.634C476.686 602.525 493.756 615.679 511.641 627.07Z"/><path fill="#F59E0B" d="M489.212 479.392C490.281 478.674 501.083 472.081 501.697 471.325C503.142 469.543 503.009 463.207 505.748 462.276C514.019 459.463 516.173 466.792 517.059 471.276C520.651 473.439 524.37 476.931 528.822 479.633C533.773 479.395 535.445 478.179 539.914 476.472C550.55 472.408 554.118 485.548 544.967 489.803C540.636 491.816 536.912 487.535 535.567 483.543L525.905 484.113C526.193 490.942 526.322 496.272 525.735 503.062C522.728 505.51 518.591 507.938 515.245 510.034C513.39 511.149 508.377 512.91 507.513 514.724C506.857 516.102 509.644 518.203 510.049 517.897C513.137 515.56 514.456 515.631 518.138 515.066L521.089 516.188C525.147 515.807 530.197 512.258 533.788 510.028C534.735 507.879 535.502 506.596 536.685 504.588C539.251 501.015 538.838 502.012 543.583 501.185C552.573 505.431 552.262 514.343 542.575 516.384C538.71 515.652 539.574 516.119 536.484 513.537C534.617 514.546 533.353 515.173 531.551 516.37L531.132 516.67C529.27 517.691 528.203 518.487 526.461 519.738L524.43 520.486C522.928 521.049 523.579 523.466 523.574 524.941C523.364 525.628 523.169 526.221 522.937 526.897C522.035 527.759 521.438 528.202 520.811 529.245C512.706 532.349 510.021 526.896 507.4 520.432C504.445 521.22 500.181 522.52 497.444 521.09C487.848 516.077 494.545 503.791 505.693 510.096C510.895 507.536 514.042 505.622 518.954 502.587C519.187 498.614 519.489 493.4 520.155 489.541C520.906 485.185 521.455 484.37 521.578 479.8C519.642 478.255 517.917 477.298 515.804 476.037C510.075 477.244 509.039 477.452 503.79 475.43C499.554 478.117 494.572 480.944 490.225 483.526C489.489 489.987 484.507 493.849 479.841 491.49C471.254 487.15 475.573 472.834 489.212 479.392Z"/><path fill="#F59E0B" d="M518.971 540.975C517.833 544.15 516.516 549.016 513.302 550.239C507.024 552.628 504.661 548.919 503.17 543.462C502.221 542.662 494.785 538.335 494.226 538.335C488.881 538.334 483.378 540.928 481.319 533.902C479.421 527.426 486.983 521.997 492.231 525.955C494.346 527.551 495.343 531.139 496.121 533.776C498.992 535.583 501.556 537.18 504.529 538.809C514.638 533.562 512.712 541.135 520.007 535.574C522.665 534.334 525.544 531.663 528.045 529.871C530.222 530.25 532.353 530.713 534.565 531.078C537.501 527.705 537.534 526.573 542.276 525.87C545.001 526.737 547.4 527.39 548.799 530.138C549.663 531.829 549.795 533.801 549.163 535.592C548.513 537.447 547.152 538.967 545.38 539.818C540.618 542.098 537.57 539.012 535.101 535.403C526.037 535.436 526.655 536.862 518.971 540.975Z"/><path fill="#F59E0B" d="M507.192 484.979C513.897 484.419 518.839 490.434 515.283 496.178C514.131 498.063 512.228 499.365 510.053 499.756C506.676 500.391 505.661 499.095 503.145 497.647C499.007 499.742 494.953 501.997 490.991 504.408L488.617 505.876C487.096 511.189 487.832 512.152 482.73 514.715C473.298 516.134 469.427 505.676 477.39 500.814C480.198 499.1 483.762 501.058 486.389 501.946C491.562 498.857 496.334 496.178 501.562 493.198C502.874 487.89 502.222 487.688 507.192 484.979Z"/><path fill="#FAFAF7" fill-opacity="0.86274511" d="M536.484 513.537C539.574 516.119 538.71 515.652 542.575 516.384C542.499 516.455 541.339 519.095 541.09 519.538C539.514 522.33 541.217 523.409 542.276 525.87C537.534 526.573 537.501 527.705 534.565 531.078C532.353 530.713 530.222 530.25 528.045 529.871C525.544 531.663 522.665 534.334 520.007 535.574L520.122 535.166C521.218 534.202 522.934 530.725 524.27 529.016C533.97 527.898 534.538 526.819 533.434 520.753C533.169 519.297 535.675 519.766 531.551 516.37C533.353 515.173 534.617 514.546 536.484 513.537Z"/><path fill="#FAFAF7" fill-opacity="0.11764706" d="M536.685 504.588C531.023 503.117 533.249 500.764 533.058 496.244C532.646 494.146 531.286 493.239 531.802 491.003C532.158 489.457 534.678 487.266 535.595 489.484C536.496 491.665 538.376 492.999 538.864 495.503C539.206 497.257 539.619 499.243 540.761 500.695C540.95 500.93 543.106 501.096 543.583 501.185C538.838 502.012 539.251 501.015 536.685 504.588Z"/><path fill="#FAFAF7" fill-opacity="0.60784316" d="M531.551 516.37C535.675 519.766 533.169 519.297 533.434 520.753C534.538 526.819 533.97 527.898 524.27 529.016C522.934 530.725 521.218 534.202 520.122 535.166C520.601 532.837 521.379 532.434 520.948 530.11L520.811 529.245C521.438 528.202 522.035 527.759 522.937 526.897C524.624 526.724 530.043 526.752 528.255 523.365C526.359 519.774 524.388 521.873 523.574 524.941C523.579 523.466 522.928 521.049 524.43 520.486L526.461 519.738C531.949 520.431 531.715 520.63 531.132 516.67L531.551 516.37Z"/><path fill="#FAFAF7" fill-opacity="0.22352941" d="M518.138 515.066C514.456 515.631 513.137 515.56 510.049 517.897C509.644 518.203 506.857 516.102 507.513 514.724C508.377 512.91 513.39 511.149 515.245 510.034C515.474 511.369 516.22 513.498 515.211 514.667L515.208 514.71C515.331 514.85 517.655 514.991 518.138 515.066Z"/><path fill="#FAFAF7" fill-opacity="0.36862746" d="M523.574 524.941C524.388 521.873 526.359 519.774 528.255 523.365C530.043 526.752 524.624 526.724 522.937 526.897C523.169 526.221 523.364 525.628 523.574 524.941Z"/><path fill="#FAFAF7" fill-opacity="0.4509804" d="M526.461 519.738C528.203 518.487 529.27 517.691 531.132 516.67C531.715 520.63 531.949 520.431 526.461 519.738Z"/><path fill="#F59E0B" d="M512.733 388.149C517.937 390.727 524.711 397.212 529.875 400.857C542.905 410.055 560.837 418.599 576.278 422.927C583.978 425.067 591.786 426.797 599.669 428.109C604.015 428.872 617.797 429.514 618.355 434.387C621.129 458.59 617.347 488.658 610.189 511.757C607.933 510.148 605.602 509.129 603.114 507.94C610.066 481.753 611.456 464.662 611.248 437.607C585.534 436.206 553.699 424.849 531.6 411.689C524.99 407.752 518.001 401.376 511.324 398.104C509.014 393.417 510.195 392.206 512.733 388.149Z"/></svg>