<?xml version="1.0" encoding="utf-8" ?><svg xmlns="http://www.w3.org/2000/svg" xmlns:xlink="http://www.w3.org/1999/xlink" width="1536" height="768" viewBox="0 0 1536 768"><path fill="#1C1917" d="M0 0L1536 0L1536 768L0 768L0 0Z"/><path fill="#FFFBEB" d="M449.688 289.841C482.881 290.629 498.013 294.749 526.39 309.915L526.552 368.436C526.575 380.922 527.472 401.147 524.737 412.512C519.023 436.259 501.375 445.211 482.631 456.665C472.568 462.774 462.545 468.952 452.565 475.197C451.615 475.929 451.395 475.811 450.193 475.864C438.279 469.107 403.66 447.282 394.843 438.447C388.02 431.474 383.108 422.861 380.582 413.438C377.431 401.473 378.219 379.934 378.206 366.951L378.195 309.875C402.964 295.749 421.59 290.995 449.688 289.841Z"/><path fill="#1C1917" d="M445.903 295.07C473.987 293.655 497.532 299.796 522.053 312.808C522.281 331.075 522.151 349.546 522.136 367.676C522.115 394.033 526.038 419.225 503.092 437.791C496.293 443.291 489.583 446.911 482.232 451.359L456.142 467.179L450.633 470.951C436.24 461.277 421.473 452.198 407.07 442.546C378.196 423.194 382.382 394.038 382.458 363.084L382.614 312.662C407.332 300.465 417.832 296.547 445.903 295.07Z"/><path fill="#D97706" d="M456.442 306.276C479.248 307.791 490.645 311.351 510.578 322.27C510.853 338.256 511.985 397.247 508.741 408.904C503.283 428.511 480.196 439.654 463.759 449.099L462.703 449.288L461.692 448.117C461.754 446.844 461.765 445.468 462.944 444.646C477.78 434.305 501.181 426.124 505.298 406.188C507.238 396.795 506.595 383.664 506.613 373.873C506.675 357.504 506.621 341.135 506.45 324.766C487.096 313.843 478.43 312.69 457.352 310.824C455.969 309.085 456.432 308.907 456.442 306.276Z"/><path fill="#D97706" d="M449.321 331.001C452.58 331.746 454.323 332.133 455.068 335.613C453.967 338.96 454.281 337.99 451.459 340.593L451.429 351.606C455.406 354.356 459.493 357.496 463.392 360.4L463.522 395.077C489.157 379.587 471.132 360.3 475.286 352.33C477.483 350.91 476.46 351.202 479.183 351.323C481.511 353.144 480.761 352.19 481.892 355.122C481.364 357.976 481.441 357.178 478.829 359.506C477.905 365.805 478.518 373.13 478.526 379.551C478.529 382.024 479.816 382.463 481.827 384.326C483.297 391.154 471.384 389.632 467.281 394.538C465.7 396.427 466.974 399.322 465.359 402.532C462.934 403.743 464.012 403.512 461.242 403.337C458.806 401.627 459.565 402.564 458.42 399.744C458.914 396.979 459.223 397.474 461.739 395.115C462.525 386.606 462.024 370.729 461.994 361.67C459.15 359.036 455.772 356.723 452.619 354.439C449.488 352.874 442.105 360.022 439.485 362.097C439.462 370.853 439.267 385.359 439.767 394.472C439.834 395.681 442.82 395.471 443.38 400.122C442.723 401.369 442.152 402.694 440.293 402.947C434.36 403.754 435.899 396.785 434.063 394.731C430.511 390.758 425.27 391.342 421.102 388.339C417.862 382.537 422.996 384.529 423.076 378.839C423.159 372.855 422.97 366.464 422.89 360.481C420.868 358.561 419.997 358.034 419.528 355.291C420.231 352.376 419.606 353.353 421.773 351.516C424.768 351.237 423.568 351.042 426.329 352.272C426.788 352.977 428.254 355.603 427.457 356.396C422.524 361.305 424.41 373.589 424.578 380.488C431.328 388.622 427.225 388.05 437.97 395.688L438.038 361.626C441.518 358.376 446.381 354.745 450.301 351.193C450.818 343.885 449.839 342.743 447.356 335.939C446.692 334.118 448.221 332.622 449.321 331.001Z"/><path fill="#391F04" d="M421.799 353.678C422.409 353.077 423.301 352.858 424.121 353.11C424.941 353.361 425.557 354.042 425.725 354.882C425.894 355.723 425.588 356.589 424.928 357.137C423.966 357.936 422.545 357.835 421.706 356.907C420.867 355.98 420.908 354.556 421.799 353.678Z"/><path fill="#391F04" d="M449.277 334.172C449.904 333.535 450.848 333.329 451.682 333.648C452.517 333.966 453.085 334.748 453.128 335.64C453.171 336.533 452.683 337.366 451.883 337.764C450.899 338.253 449.705 337.96 449.06 337.071C448.415 336.181 448.507 334.956 449.277 334.172Z"/><path fill="#391F04" d="M462.361 397.35C463.401 397.223 464.383 397.854 464.7 398.853C465.017 399.851 464.578 400.933 463.656 401.429C462.885 401.843 461.941 401.756 461.259 401.207C460.577 400.658 460.29 399.755 460.531 398.913C460.771 398.072 461.492 397.456 462.361 397.35Z"/><path fill="#391F04" d="M476.512 353.661C477.15 353.112 478.049 352.984 478.816 353.331C479.583 353.678 480.079 354.438 480.088 355.279C480.098 356.121 479.619 356.892 478.86 357.256C477.881 357.726 476.704 357.398 476.11 356.488C475.515 355.578 475.687 354.369 476.512 353.661Z"/><path fill="#391F04" d="M476.963 384.369C477.799 383.743 478.972 383.846 479.685 384.609C480.398 385.371 480.423 386.549 479.742 387.34C479.23 387.935 478.424 388.184 477.667 387.983C476.909 387.783 476.333 387.166 476.183 386.397C476.033 385.627 476.336 384.84 476.963 384.369Z"/><path fill="#391F04" d="M437.823 398.068C438.494 397.353 439.583 397.228 440.399 397.771C441.214 398.314 441.519 399.367 441.119 400.262C440.794 400.99 440.068 401.457 439.27 401.45C438.472 401.444 437.754 400.966 437.44 400.233C437.126 399.499 437.276 398.649 437.823 398.068Z"/><path fill="#391F04" d="M422.628 384.486C423.352 383.76 424.516 383.721 425.288 384.397C426.059 385.073 426.173 386.232 425.548 387.046C425.106 387.621 424.381 387.902 423.667 387.776C422.953 387.65 422.368 387.138 422.15 386.447C421.931 385.755 422.116 385 422.628 384.486Z"/><path fill="#FFFBEB" d="M441.439 307.029C444.131 306.662 445.012 306.441 447.716 306.904C448.756 308.25 448.444 307.748 448.209 310C445.612 311.384 441.065 310.99 437.974 311.39C423.931 313.205 412.164 318.175 399.749 324.642L399.617 385.687L399.603 386.841C398.504 388.555 399.179 388.037 396.859 388.571L395.731 387.56C395.076 381.275 395.63 372.378 395.651 365.682L395.707 322.044C412.611 312.762 422.334 309.254 441.439 307.029Z"/><path fill="#D97706" d="M395.65 397.661C396.051 397.746 399.2 398.67 399.217 398.772C401.328 411.698 404.771 418.926 415.528 427.1C422.867 432.676 432.832 437.446 439.53 443.986C440.406 444.84 439.873 445.885 439.68 447.065L437.735 447.359C428.004 441.317 417.056 433.998 408.491 426.415C398.632 417.687 396.165 410.633 395.65 397.661Z"/><path fill="#D97706" d="M448.454 363.447C451.07 363.438 451.527 363.384 453.9 364.61C457.812 370.659 452.064 367.486 452.007 375.584C451.643 401.641 451.551 427.701 451.734 453.76L451.045 454.361L450.252 453.857C449.527 449.866 449.959 438.185 449.928 433.593C449.796 413.965 450.349 394.236 450.179 374.603C450.149 371.153 449.295 371.116 446.55 368.621C446.552 365.683 446.734 366.318 448.454 363.447Z"/><path fill="#391F04" d="M449.898 365.424C450.987 364.929 452.273 365.374 452.824 366.436C453.375 367.498 452.999 368.805 451.967 369.411C451.25 369.832 450.359 369.823 449.65 369.388C448.942 368.952 448.532 368.161 448.583 367.331C448.635 366.501 449.141 365.768 449.898 365.424Z"/><path fill="#D97706" d="M1106.19 333.306C1153.21 329.913 1165.51 384.14 1143.72 416.228C1148.41 420.305 1152.73 424.352 1157.25 428.626C1154.02 431.756 1150.77 435.116 1147.59 438.317C1144.71 435.666 1135.47 426.082 1132.34 426.544C1115.55 434.147 1092.72 433.482 1078.38 421.538C1053.44 400.766 1057.68 344.689 1092.01 335.523C1097.2 334.137 1100.89 333.737 1106.19 333.306Z"/><path fill="#1C1917" d="M1105.68 345.938C1139.82 343.967 1144.37 382.334 1132.35 405.946C1126.51 401.331 1123.08 397.661 1117.93 392.344L1109.58 400.685L1118.82 409.812C1120.53 411.363 1122.14 413.187 1123.71 414.884C1083.18 431.275 1067.56 387.445 1084.43 357.761C1088.49 350.625 1097.85 347.279 1105.68 345.938Z"/><path fill="#FFFBEB" d="M708.229 357.234C742.563 355.661 753.763 391.836 738.565 417.787C733.681 426.128 724.527 429.628 715.412 431.342C705.899 431.585 697.83 430.768 689.678 424.806C673.437 412.935 672.373 384.702 684.166 369.365C690.363 361.306 698.564 358.362 708.229 357.234Z"/><path fill="#1C1917" d="M706.092 366.212C718.813 365.369 729.767 369.936 733.355 382.803C737.953 399.292 734.132 416.585 716.663 422.163C679.845 428.042 676.861 373.51 706.092 366.212Z"/><path fill="#FFFBEB" d="M852.055 357.257C852.879 357.227 853.703 357.222 854.528 357.244C879.931 357.914 888.888 373.795 888.131 397.206L829.856 397.31C832.134 423.413 859.752 431.684 874.714 413.087C877.49 405.762 880.268 407.403 887.428 407.843C878.353 442.682 822.605 439.014 819.831 401.363C818.101 377.885 826.601 359.982 852.055 357.257Z"/><path fill="#1C1917" d="M852.662 366.22C868.917 365.32 876.158 373.954 878.311 388.868L856.313 388.762C850.492 388.685 835.313 389.532 830.782 388.059C829.385 385.007 832.914 377.394 834.968 374.875C839.833 368.908 845.327 367.141 852.662 366.22Z"/><path fill="#FFFBEB" d="M610.866 333.898C636.039 331.335 655.37 338.762 661.691 365.577L651.008 366.418C646.001 348.851 637.762 344.565 619.499 343.396C582.963 341.058 575.729 391.253 595.352 412.848C607.063 425.736 644.973 425.203 649.957 404.124C651.27 398.57 651.219 396.746 651.135 390.909L636.584 390.912L621.156 390.892L621.107 382.227L662.339 382.37C662.208 389.192 662.691 424.489 661.576 428.259C659.501 429.297 657.745 429.058 655.448 428.994C654.072 427.544 654.323 409.526 654.267 406.136C649.498 418.14 645.145 427.553 631.013 430.33C617.823 432.921 604.746 431.505 593.137 424.192C570.652 410.028 569.343 372.015 582.253 351.134C588.463 341.088 599.356 336.066 610.866 333.898Z"/><path fill="#FFFBEB" d="M976.584 357.158C1020.22 351.916 1011.64 401.155 1011.37 429.534L1001.33 429.622C1001.36 416.495 1001.66 403.2 1001.33 390.094C1000.9 373.309 993.222 365.968 977.076 366.512C955.387 373.188 961.339 410.998 961.325 429.802L951.524 429.946L951.633 358.52L961.299 358.482L961.319 369.08C966.2 362.513 968.951 359.818 976.584 357.158Z"/><path fill="#FFFBEB" d="M804.617 358.473L816.037 358.506L811.972 368.063L787.771 429.575L776.196 429.54C772.535 422.098 768.98 412.16 765.831 404.286C759.75 389 753.561 373.757 747.266 358.558L758.26 358.557C766.285 378.348 774.077 398.233 781.635 418.208C783.859 413.614 787.098 404.576 789.046 399.581C794.36 385.926 799.551 372.223 804.617 358.473Z"/><path fill="#D97706" d="M1032.75 334.778L1048.08 334.729L1047.87 429.545L1032.82 429.628L1032.75 334.778Z"/><path fill="#FFFBEB" d="M929.759 357.942C932.14 357.681 934.035 357.142 936.005 358.282C937.426 360.208 936.911 364.61 936.836 367.218C905.275 367.588 913.328 406.344 913.349 429.696C910.307 429.781 905.397 430.503 903.404 428.327L903.467 358.589L913.136 358.668L913.194 369.507C919.055 361.968 920.547 360.428 929.759 357.942Z"/></svg>